<?xml version="1.0" encoding="UTF-8"?><svg id="Layer_2" xmlns="http://www.w3.org/2000/svg" xmlns:xlink="http://www.w3.org/1999/xlink" viewBox="0 0 399.43 346.38"><defs><style>.cls-1{fill:url(#linear-gradient);}.cls-2{fill:#e5eeff;}.cls-3{fill:#103e72;}</style><linearGradient id="linear-gradient" x1="233.63" y1="101.77" x2="376.47" y2="244.61" gradientUnits="userSpaceOnUse"><stop offset=".2" stop-color="#e58676"/><stop offset="1" stop-color="#e023ae"/></linearGradient></defs><g id="Logo_layers"><g id="_10X_logo_summer_night_skies_with_tagline"><g id="_10X_logo_summer_night_skies_400px"><g id="Icon_Mark"><rect id="blocker" class="cls-2" x="22.69" y="92.9" width="221.56" height="162.27" rx="4" ry="4"/><g id="logo_icon"><path class="cls-3" d="m390.54,80.86L204.84.72c-3.34-.95-6.9-.95-10.24,0L8.89,80.86C3.39,83.88,0,89.46,0,95.5v157.85c0,6.04,3.39,11.62,8.89,14.64l185.92,77.74c3.2.87,6.6.87,9.8,0l185.92-77.74c5.5-3.02,8.89-8.6,8.89-14.64V95.5c0-6.04-3.39-11.62-8.89-14.64ZM67.68,244.97c0,1.21-.98,2.19-2.19,2.19h-31.26c-1.21,0-2.19-.98-2.19-2.19v-115.96s-4.84,0-4.84,0c-1.73,0-3.12-1.4-3.12-3.13v-23.51c0-1.73,1.4-3.14,3.12-3.14h7.02s0,0,.01,0h31.26c1.21,0,2.19.98,2.19,2.19v143.55Zm94.68,7.58c-43.62,0-78.97-35.49-78.97-79.27s35.36-79.27,78.97-79.27c43.62,0,78.97,35.49,78.97,79.27,0,43.78-35.36,79.27-78.97,79.27Z"/><path class="cls-1" d="m324.41,173.19l50.48-70.07c1.17-1.63.01-3.9-1.99-3.9h-31.41c-1.57,0-3.05.76-3.97,2.04l-32.47,45.06-32.47-45.06c-.92-1.28-2.4-2.04-3.97-2.04h-31.41c-2,0-3.16,2.27-1.99,3.9l50.48,70.07-50.48,70.07c-1.17,1.63-.01,3.9,1.99,3.9h31.41c1.57,0,3.05-.76,3.97-2.04l32.47-45.06,32.47,45.06c.92,1.28,2.4,2.04,3.97,2.04h31.41c2,0,3.16-2.27,1.99-3.9l-50.48-70.07Z"/><path class="cls-3" d="m162.36,228.02c8.14-.19,15.17-2.33,21.09-6.43,5.91-4.09,10.52-10.18,13.82-18.24,3.3-8.06,4.95-18.07,4.95-30.02,0-12.1-1.65-22.06-4.95-29.9-3.3-7.83-7.91-13.66-13.82-17.48-5.92-3.81-12.95-5.63-21.09-5.44-7.96.19-14.94,2.33-20.95,6.43-6.02,4.1-10.67,10.14-13.97,18.13-3.3,7.99-4.95,18.04-4.95,30.13,0,11.95,1.65,21.88,4.95,29.78,3.3,7.91,7.95,13.78,13.97,17.59,6.01,3.82,13,5.63,20.95,5.44Z"/></g></g></g></g></g></svg>