<?xml version="1.0" encoding="UTF-8" standalone="no"?>
<!-- Created with Inkscape (http://www.inkscape.org/) -->

<svg
   version="1.1"
   id="svg1"
   width="1104.4667"
   height="837.79999"
   viewBox="0 0 1104.4667 837.79999"
   sodipodi:docname="amandlaCGF-construction.eps"
   xmlns:inkscape="http://www.inkscape.org/namespaces/inkscape"
   xmlns:sodipodi="http://sodipodi.sourceforge.net/DTD/sodipodi-0.dtd"
   xmlns="http://www.w3.org/2000/svg"
   xmlns:svg="http://www.w3.org/2000/svg">
  <defs
     id="defs1" />
  <sodipodi:namedview
     id="namedview1"
     pagecolor="#ffffff"
     bordercolor="#000000"
     borderopacity="0.25"
     inkscape:showpageshadow="2"
     inkscape:pageopacity="0.0"
     inkscape:pagecheckerboard="0"
     inkscape:deskcolor="#d1d1d1">
    <inkscape:page
       x="0"
       y="0"
       inkscape:label="1"
       id="page1"
       width="1104.4667"
       height="837.79999"
       margin="0"
       bleed="0" />
  </sodipodi:namedview>
  <g
     id="g1"
     inkscape:groupmode="layer"
     inkscape:label="1">
    <path
       id="path1"
       d="m 861.945,3861.79 h 219.765 l -107.726,680.5 h -4.32 z M 774.016,3273.43 H 510.234 L 802.57,4858.45 h 338.52 l 292.32,-1585.02 h -263.66 l -48.46,351.27 H 822.363 l -48.347,-351.27"
       style="fill:#d22027;fill-opacity:1;fill-rule:nonzero;stroke:none"
       transform="matrix(0.13333333,0,0,-0.13333333,0,837.8)" />
    <path
       id="path2"
       d="m 861.945,3861.79 h 219.765 l -107.726,680.5 h -4.32 z M 774.016,3273.43 H 510.234 L 802.57,4858.45 h 338.52 l 292.32,-1585.02 h -263.66 l -48.46,351.27 H 822.363 l -48.347,-351.27"
       style="fill:#d22027;fill-opacity:1;fill-rule:nonzero;stroke:none"
       transform="matrix(0.13333333,0,0,-0.13333333,0,837.8)" />
    <path
       id="path3"
       d="M 2684.19,4858.45 V 3273.43 H 2446.8 v 1238.18 h -4.44 L 2196.21,3273.43 h -131.94 l -246.16,1238.18 h -4.32 V 3273.43 H 1576.4 v 1585.02 h 358.19 L 2128.08,3932 h 4.43 l 193.37,926.45 h 358.31"
       style="fill:#d22027;fill-opacity:1;fill-rule:nonzero;stroke:none"
       transform="matrix(0.13333333,0,0,-0.13333333,0,837.8)" />
    <path
       id="path4"
       d="M 2684.19,4858.45 V 3273.43 H 2446.8 v 1238.18 h -4.44 L 2196.21,3273.43 h -131.94 l -246.16,1238.18 h -4.32 V 3273.43 H 1576.4 v 1585.02 h 358.19 L 2128.08,3932 h 4.43 l 193.37,926.45 h 358.31"
       style="fill:#d22027;fill-opacity:1;fill-rule:nonzero;stroke:none"
       transform="matrix(0.13333333,0,0,-0.13333333,0,837.8)" />
    <path
       id="path5"
       d="m 6095.79,3273.42 v 1585.01 h 272.54 V 3510.51 h 428.72 v -237.09 h -701.26"
       style="fill:#d22027;fill-opacity:1;fill-rule:nonzero;stroke:none"
       transform="matrix(0.13333333,0,0,-0.13333333,0,837.8)" />
    <path
       id="path6"
       d="m 6095.79,3273.42 v 1585.01 h 272.54 V 3510.51 h 428.72 v -237.09 h -701.26"
       style="fill:#d22027;fill-opacity:1;fill-rule:nonzero;stroke:none"
       transform="matrix(0.13333333,0,0,-0.13333333,0,837.8)" />
    <path
       id="path7"
       d="m 7210.26,3861.79 h 219.76 l -107.72,680.5 h -4.32 z m -87.92,-588.36 h -263.79 l 292.34,1585.02 h 338.51 l 292.33,-1585.02 h -263.78 l -48.34,351.27 h -298.93 l -48.34,-351.27"
       style="fill:#d22027;fill-opacity:1;fill-rule:nonzero;stroke:none"
       transform="matrix(0.13333333,0,0,-0.13333333,0,837.8)" />
    <path
       id="path8"
       d="m 7210.26,3861.79 h 219.76 l -107.72,680.5 h -4.32 z m -87.92,-588.36 h -263.79 l 292.34,1585.02 h 338.51 l 292.33,-1585.02 h -263.78 l -48.34,351.27 h -298.93 l -48.34,-351.27"
       style="fill:#d22027;fill-opacity:1;fill-rule:nonzero;stroke:none"
       transform="matrix(0.13333333,0,0,-0.13333333,0,837.8)" />
    <path
       id="path9"
       d="m 3181.02,3861.79 h 219.76 l -107.72,680.5 h -4.32 z m -87.93,-588.36 h -263.78 l 292.33,1585.02 h 338.52 l 292.33,-1585.02 h -263.78 l -48.35,351.27 h -298.93 l -48.34,-351.27"
       style="fill:#d22027;fill-opacity:1;fill-rule:nonzero;stroke:none"
       transform="matrix(0.13333333,0,0,-0.13333333,0,837.8)" />
    <path
       id="path10"
       d="m 3181.02,3861.79 h 219.76 l -107.72,680.5 h -4.32 z m -87.93,-588.36 h -263.78 l 292.33,1585.02 h 338.52 l 292.33,-1585.02 h -263.78 l -48.35,351.27 h -298.93 l -48.34,-351.27"
       style="fill:#d22027;fill-opacity:1;fill-rule:nonzero;stroke:none"
       transform="matrix(0.13333333,0,0,-0.13333333,0,837.8)" />
    <path
       id="path11"
       d="m 3910.78,3273.42 v 1585.01 h 252.75 l 331.92,-906.68 h 4.43 v 906.68 h 246.15 V 3273.42 h -237.39 l -347.27,990.07 h -4.44 v -990.07 h -246.15"
       style="fill:#d22027;fill-opacity:1;fill-rule:nonzero;stroke:none"
       transform="matrix(0.13333333,0,0,-0.13333333,0,837.8)" />
    <path
       id="path12"
       d="m 3910.78,3273.42 v 1585.01 h 252.75 l 331.92,-906.68 h 4.43 v 906.68 h 246.15 V 3273.42 h -237.39 l -347.27,990.07 h -4.44 v -990.07 h -246.15"
       style="fill:#d22027;fill-opacity:1;fill-rule:nonzero;stroke:none"
       transform="matrix(0.13333333,0,0,-0.13333333,0,837.8)" />
    <path
       id="path13"
       d="m 5282.44,3497.35 h 94.52 c 145.03,0 195.65,54.87 195.65,221.76 v 693.66 c 0,166.89 -50.62,221.76 -195.65,221.76 h -94.52 z m -272.55,1361.1 h 404.49 c 281.3,0 430.77,-153.71 430.77,-478.51 v -627.89 c 0,-324.91 -149.47,-478.62 -430.77,-478.62 h -404.49 v 1585.02"
       style="fill:#d22027;fill-opacity:1;fill-rule:nonzero;stroke:none"
       transform="matrix(0.13333333,0,0,-0.13333333,0,837.8)" />
    <path
       id="path14"
       d="m 5282.44,3497.35 h 94.52 c 145.03,0 195.65,54.87 195.65,221.76 v 693.66 c 0,166.89 -50.62,221.76 -195.65,221.76 h -94.52 z m -272.55,1361.1 h 404.49 c 281.3,0 430.77,-153.71 430.77,-478.51 v -627.89 c 0,-324.91 -149.47,-478.62 -430.77,-478.62 h -404.49 v 1585.02"
       style="fill:#d22027;fill-opacity:1;fill-rule:nonzero;stroke:none"
       transform="matrix(0.13333333,0,0,-0.13333333,0,837.8)" />
    <path
       id="path15"
       d="m 933.059,2611.46 c -13.571,154.62 -62.59,219.72 -145.586,219.72 -123.805,0 -178.301,-108.49 -178.301,-413.64 0,-305.02 54.496,-413.52 178.301,-413.52 99.297,0 156.414,67.82 159.148,249.48 h 106.139 c -2.74,-216.99 -97.932,-339 -265.287,-339 -175.563,0 -284.325,132.92 -284.325,503.04 0,370.24 108.762,503.04 284.325,503.04 145.586,0 235.417,-100.31 251.717,-309.12 H 933.059"
       style="fill:#171516;fill-opacity:1;fill-rule:nonzero;stroke:none"
       transform="matrix(0.13333333,0,0,-0.13333333,0,837.8)" />
    <path
       id="path16"
       d="m 933.059,2611.46 c -13.571,154.62 -62.59,219.72 -145.586,219.72 -123.805,0 -178.301,-108.49 -178.301,-413.64 0,-305.02 54.496,-413.52 178.301,-413.52 99.297,0 156.414,67.82 159.148,249.48 h 106.139 c -2.74,-216.99 -97.932,-339 -265.287,-339 -175.563,0 -284.325,132.92 -284.325,503.04 0,370.24 108.762,503.04 284.325,503.04 145.586,0 235.417,-100.31 251.717,-309.12 H 933.059"
       style="fill:#171516;fill-opacity:1;fill-rule:nonzero;stroke:none"
       transform="matrix(0.13333333,0,0,-0.13333333,0,837.8)" />
    <path
       id="path17"
       d="m 1461.05,2831.1 c -95.31,0 -171.46,-81.35 -171.46,-413.52 0,-332.18 76.15,-413.53 171.46,-413.53 95.19,0 171.46,81.35 171.46,413.53 0,332.17 -76.27,413.52 -171.46,413.52 m 0,-916.56 c -165.99,0 -277.6,138.25 -277.6,503.04 0,364.78 111.61,503.04 277.6,503.04 165.99,0 277.59,-138.26 277.59,-503.04 0,-364.79 -111.6,-503.04 -277.59,-503.04"
       style="fill:#171516;fill-opacity:1;fill-rule:nonzero;stroke:none"
       transform="matrix(0.13333333,0,0,-0.13333333,0,837.8)" />
    <path
       id="path18"
       d="m 1461.05,2831.1 c -95.31,0 -171.46,-81.35 -171.46,-413.52 0,-332.18 76.15,-413.53 171.46,-413.53 95.19,0 171.46,81.35 171.46,413.53 0,332.17 -76.27,413.52 -171.46,413.52 z m 0,-916.56 c -165.99,0 -277.6,138.25 -277.6,503.04 0,364.78 111.61,503.04 277.6,503.04 165.99,0 277.59,-138.26 277.59,-503.04 0,-364.79 -111.6,-503.04 -277.59,-503.04"
       style="fill:#171516;fill-opacity:1;fill-rule:nonzero;stroke:none"
       transform="matrix(0.13333333,0,0,-0.13333333,0,837.8)" />
    <path
       id="path19"
       d="m 2043.44,2907.05 253.09,-721.39 h 2.74 v 721.39 h 106.13 v -978.92 h -114.35 l -304.72,851.46 h -2.74 v -851.46 h -106.14 v 978.92 h 165.99"
       style="fill:#171516;fill-opacity:1;fill-rule:nonzero;stroke:none"
       transform="matrix(0.13333333,0,0,-0.13333333,0,837.8)" />
    <path
       id="path20"
       d="m 2043.44,2907.05 253.09,-721.39 h 2.74 v 721.39 h 106.13 v -978.92 h -114.35 l -304.72,851.46 h -2.74 v -851.46 h -106.14 v 978.92 h 165.99"
       style="fill:#171516;fill-opacity:1;fill-rule:nonzero;stroke:none"
       transform="matrix(0.13333333,0,0,-0.13333333,0,837.8)" />
    <path
       id="path21"
       d="m 2922.47,2654.85 c -8.2,100.31 -49.02,176.31 -151.05,176.31 -81.63,0 -134.64,-54.3 -134.64,-128.82 0,-221.08 394.56,-223.8 394.56,-538.38 0,-155.86 -89.83,-249.47 -251.71,-249.47 -153.79,0 -246.36,112.58 -248.99,276.63 h 97.93 c 2.74,-115.2 57.12,-187.11 161.89,-187.11 88.47,0 145.58,56.92 145.58,161.32 0,222.44 -394.56,248.11 -394.56,527.46 0,138.37 95.3,227.78 236.78,227.78 141.47,0 234.04,-94.86 242.14,-265.72 h -97.93"
       style="fill:#171516;fill-opacity:1;fill-rule:nonzero;stroke:none"
       transform="matrix(0.13333333,0,0,-0.13333333,0,837.8)" />
    <path
       id="path22"
       d="m 2922.47,2654.85 c -8.2,100.31 -49.02,176.31 -151.05,176.31 -81.63,0 -134.64,-54.3 -134.64,-128.82 0,-221.08 394.56,-223.8 394.56,-538.38 0,-155.86 -89.83,-249.47 -251.71,-249.47 -153.79,0 -246.36,112.58 -248.99,276.63 h 97.93 c 2.74,-115.2 57.12,-187.11 161.89,-187.11 88.47,0 145.58,56.92 145.58,161.32 0,222.44 -394.56,248.11 -394.56,527.46 0,138.37 95.3,227.78 236.78,227.78 141.47,0 234.04,-94.86 242.14,-265.72 h -97.93"
       style="fill:#171516;fill-opacity:1;fill-rule:nonzero;stroke:none"
       transform="matrix(0.13333333,0,0,-0.13333333,0,837.8)" />
    <path
       id="path23"
       d="m 3604.18,2907.05 v -89.51 h -201.34 v -889.41 h -106.13 v 889.41 h -201.44 v 89.51 h 508.91"
       style="fill:#171516;fill-opacity:1;fill-rule:nonzero;stroke:none"
       transform="matrix(0.13333333,0,0,-0.13333333,0,837.8)" />
    <path
       id="path24"
       d="m 3604.18,2907.05 v -89.51 h -201.34 v -889.41 h -106.13 v 889.41 h -201.44 v 89.51 h 508.91"
       style="fill:#171516;fill-opacity:1;fill-rule:nonzero;stroke:none"
       transform="matrix(0.13333333,0,0,-0.13333333,0,837.8)" />
    <path
       id="path25"
       d="m 3811.03,2478.53 h 92.46 c 152.42,0 201.44,59.75 201.44,169.49 0,109.86 -49.02,169.5 -201.44,169.5 h -92.46 z m -106.14,428.51 h 236.79 c 157.78,0 269.39,-92.13 269.39,-253.56 0,-109.86 -49.02,-201.99 -157.89,-239.94 l 165.98,-485.43 h -111.49 l -157.89,463.74 -138.75,-5.46 v -458.28 h -106.14 v 978.93"
       style="fill:#171516;fill-opacity:1;fill-rule:nonzero;stroke:none"
       transform="matrix(0.13333333,0,0,-0.13333333,0,837.8)" />
    <path
       id="path26"
       d="m 3811.03,2478.53 h 92.46 c 152.42,0 201.44,59.75 201.44,169.49 0,109.86 -49.02,169.5 -201.44,169.5 h -92.46 z m -106.14,428.51 h 236.79 c 157.78,0 269.39,-92.13 269.39,-253.56 0,-109.86 -49.02,-201.99 -157.89,-239.94 l 165.98,-485.43 h -111.49 l -157.89,463.74 -138.75,-5.46 v -458.28 h -106.14 v 978.93"
       style="fill:#171516;fill-opacity:1;fill-rule:nonzero;stroke:none"
       transform="matrix(0.13333333,0,0,-0.13333333,0,837.8)" />
    <path
       id="path27"
       d="m 4491.4,2907.05 v -718.66 c 0,-98.95 28.5,-184.38 144.22,-184.38 115.71,0 144.21,85.43 144.21,184.38 v 718.66 h 106.14 v -721.39 c 0,-157.22 -73.42,-271.17 -250.35,-271.17 -176.94,0 -250.35,113.95 -250.35,271.17 v 721.39 h 106.13"
       style="fill:#171516;fill-opacity:1;fill-rule:nonzero;stroke:none"
       transform="matrix(0.13333333,0,0,-0.13333333,0,837.8)" />
    <path
       id="path28"
       d="m 4491.4,2907.05 v -718.66 c 0,-98.95 28.5,-184.38 144.22,-184.38 115.71,0 144.21,85.43 144.21,184.38 v 718.66 h 106.14 v -721.39 c 0,-157.22 -73.42,-271.17 -250.35,-271.17 -176.94,0 -250.35,113.95 -250.35,271.17 v 721.39 h 106.13"
       style="fill:#171516;fill-opacity:1;fill-rule:nonzero;stroke:none"
       transform="matrix(0.13333333,0,0,-0.13333333,0,837.8)" />
    <path
       id="path29"
       d="m 5468.41,2611.46 c -13.57,154.62 -62.59,219.72 -145.59,219.72 -123.8,0 -178.29,-108.49 -178.29,-413.64 0,-305.02 54.49,-413.52 178.29,-413.52 99.31,0 156.42,67.82 159.15,249.48 h 106.14 c -2.74,-216.99 -97.93,-339 -265.29,-339 -175.56,0 -284.32,132.92 -284.32,503.04 0,370.24 108.76,503.04 284.32,503.04 145.59,0 235.42,-100.31 251.72,-309.12 h -106.13"
       style="fill:#171516;fill-opacity:1;fill-rule:nonzero;stroke:none"
       transform="matrix(0.13333333,0,0,-0.13333333,0,837.8)" />
    <path
       id="path30"
       d="m 5468.41,2611.46 c -13.57,154.62 -62.59,219.72 -145.59,219.72 -123.8,0 -178.29,-108.49 -178.29,-413.64 0,-305.02 54.49,-413.52 178.29,-413.52 99.31,0 156.42,67.82 159.15,249.48 h 106.14 c -2.74,-216.99 -97.93,-339 -265.29,-339 -175.56,0 -284.32,132.92 -284.32,503.04 0,370.24 108.76,503.04 284.32,503.04 145.59,0 235.42,-100.31 251.72,-309.12 h -106.13"
       style="fill:#171516;fill-opacity:1;fill-rule:nonzero;stroke:none"
       transform="matrix(0.13333333,0,0,-0.13333333,0,837.8)" />
    <path
       id="path31"
       d="m 6174.63,2907.05 v -89.51 h -201.44 v -889.41 h -106.03 v 889.41 h -201.44 v 89.51 h 508.91"
       style="fill:#171516;fill-opacity:1;fill-rule:nonzero;stroke:none"
       transform="matrix(0.13333333,0,0,-0.13333333,0,837.8)" />
    <path
       id="path32"
       d="m 6174.63,2907.05 v -89.51 h -201.44 v -889.41 h -106.03 v 889.41 h -201.44 v 89.51 h 508.91"
       style="fill:#171516;fill-opacity:1;fill-rule:nonzero;stroke:none"
       transform="matrix(0.13333333,0,0,-0.13333333,0,837.8)" />
    <path
       id="path33"
       d="m 6389.61,1928.1 h -106.14 v 978.93 h 106.14 V 1928.1"
       style="fill:#171516;fill-opacity:1;fill-rule:nonzero;stroke:none"
       transform="matrix(0.13333333,0,0,-0.13333333,0,837.8)" />
    <path
       id="path34"
       d="m 6389.61,1928.1 h -106.14 v 978.93 h 106.14 V 1928.1"
       style="fill:#171516;fill-opacity:1;fill-rule:nonzero;stroke:none"
       transform="matrix(0.13333333,0,0,-0.13333333,0,837.8)" />
    <path
       id="path35"
       d="m 6827.77,2831.1 c -95.2,0 -171.47,-81.35 -171.47,-413.52 0,-332.18 76.27,-413.53 171.47,-413.53 95.19,0 171.46,81.35 171.46,413.53 0,332.17 -76.27,413.52 -171.46,413.52 m 0,-916.56 c -165.99,0 -277.6,138.25 -277.6,503.04 0,364.78 111.61,503.04 277.6,503.04 165.98,0 277.59,-138.26 277.59,-503.04 0,-364.79 -111.61,-503.04 -277.59,-503.04"
       style="fill:#171516;fill-opacity:1;fill-rule:nonzero;stroke:none"
       transform="matrix(0.13333333,0,0,-0.13333333,0,837.8)" />
    <path
       id="path36"
       d="m 6827.77,2831.1 c -95.2,0 -171.47,-81.35 -171.47,-413.52 0,-332.18 76.27,-413.53 171.47,-413.53 95.19,0 171.46,81.35 171.46,413.53 0,332.17 -76.27,413.52 -171.46,413.52 z m 0,-916.56 c -165.99,0 -277.6,138.25 -277.6,503.04 0,364.78 111.61,503.04 277.6,503.04 165.98,0 277.59,-138.26 277.59,-503.04 0,-364.79 -111.61,-503.04 -277.59,-503.04"
       style="fill:#171516;fill-opacity:1;fill-rule:nonzero;stroke:none"
       transform="matrix(0.13333333,0,0,-0.13333333,0,837.8)" />
    <path
       id="path37"
       d="m 7410.17,2907.05 253.09,-721.39 h 2.74 v 721.39 h 106.13 v -978.92 h -114.34 l -304.74,851.46 h -2.73 v -851.46 h -106.14 v 978.92 h 165.99"
       style="fill:#171516;fill-opacity:1;fill-rule:nonzero;stroke:none"
       transform="matrix(0.13333333,0,0,-0.13333333,0,837.8)" />
    <path
       id="path38"
       d="m 7410.17,2907.05 253.09,-721.39 h 2.74 v 721.39 h 106.13 v -978.92 h -114.34 l -304.74,851.46 h -2.73 v -851.46 h -106.14 v 978.92 h 165.99"
       style="fill:#171516;fill-opacity:1;fill-rule:nonzero;stroke:none"
       transform="matrix(0.13333333,0,0,-0.13333333,0,837.8)" />
    <path
       id="path39"
       d="M 503.148,1425.02 H 7780.32 v 136.67 H 503.148 v -136.67"
       style="fill:#171516;fill-opacity:1;fill-rule:nonzero;stroke:none"
       transform="matrix(0.13333333,0,0,-0.13333333,0,837.8)" />
  </g>
</svg>
