<?xml version="1.0" encoding="UTF-8" standalone="no"?>
<!-- Created with Inkscape (http://www.inkscape.org/) -->

<svg
   version="1.1"
   id="svg1"
   width="793.70667"
   height="1122.52"
   viewBox="0 0 793.70667 1122.52"
   sodipodi:docname="Novomatic Africa 2016_4c.ai"
   xmlns:inkscape="http://www.inkscape.org/namespaces/inkscape"
   xmlns:sodipodi="http://sodipodi.sourceforge.net/DTD/sodipodi-0.dtd"
   xmlns="http://www.w3.org/2000/svg"
   xmlns:svg="http://www.w3.org/2000/svg">
  <defs
     id="defs1">
    <clipPath
       clipPathUnits="userSpaceOnUse"
       id="clipPath4">
      <path
         d="M 0,841.89 H 595.28 V 0 H 0 Z"
         transform="translate(-288.21291,-399.17081)"
         id="path4" />
    </clipPath>
    <clipPath
       clipPathUnits="userSpaceOnUse"
       id="clipPath6">
      <path
         d="M 0,841.89 H 595.28 V 0 H 0 Z"
         transform="translate(-303.06841,-391.02921)"
         id="path6" />
    </clipPath>
    <clipPath
       clipPathUnits="userSpaceOnUse"
       id="clipPath8">
      <path
         d="M 0,841.89 H 595.28 V 0 H 0 Z"
         transform="translate(-318.68361,-390.91881)"
         id="path8" />
    </clipPath>
    <clipPath
       clipPathUnits="userSpaceOnUse"
       id="clipPath10">
      <path
         d="M 0,841.89 H 595.28 V 0 H 0 Z"
         transform="translate(-337.92581,-397.71771)"
         id="path10" />
    </clipPath>
    <clipPath
       clipPathUnits="userSpaceOnUse"
       id="clipPath12">
      <path
         d="M 0,841.89 H 595.28 V 0 H 0 Z"
         transform="translate(-212.65071,-439.80761)"
         id="path12" />
    </clipPath>
    <clipPath
       clipPathUnits="userSpaceOnUse"
       id="clipPath14">
      <path
         d="M 0,841.89 H 595.28 V 0 H 0 Z"
         transform="translate(-274.62421,-439.80761)"
         id="path14" />
    </clipPath>
    <clipPath
       clipPathUnits="userSpaceOnUse"
       id="clipPath16">
      <path
         d="M 0,841.89 H 595.28 V 0 H 0 Z"
         transform="translate(-185.7054,-412.96381)"
         id="path16" />
    </clipPath>
    <clipPath
       clipPathUnits="userSpaceOnUse"
       id="clipPath18">
      <path
         d="M 0,841.89 H 595.28 V 0 H 0 Z"
         transform="translate(-246.6223,-416.36231)"
         id="path18" />
    </clipPath>
    <clipPath
       clipPathUnits="userSpaceOnUse"
       id="clipPath20">
      <path
         d="M 0,841.89 H 595.28 V 0 H 0 Z"
         transform="translate(-368.07641,-416.36231)"
         id="path20" />
    </clipPath>
    <clipPath
       clipPathUnits="userSpaceOnUse"
       id="clipPath22">
      <path
         d="M 0,841.89 H 595.28 V 0 H 0 Z"
         transform="translate(-389.24921,-416.36231)"
         id="path22" />
    </clipPath>
    <clipPath
       clipPathUnits="userSpaceOnUse"
       id="clipPath24">
      <path
         d="M 0,841.89 H 595.28 V 0 H 0 Z"
         transform="translate(-349.51001,-428.76951)"
         id="path24" />
    </clipPath>
    <clipPath
       clipPathUnits="userSpaceOnUse"
       id="clipPath26">
      <path
         d="M 0,841.89 H 595.28 V 0 H 0 Z"
         transform="translate(-421.59781,-412.75291)"
         id="path26" />
    </clipPath>
    <clipPath
       clipPathUnits="userSpaceOnUse"
       id="clipPath28">
      <path
         d="M 0,841.89 H 595.28 V 0 H 0 Z"
         transform="translate(-320.13101,-444.92771)"
         id="path28" />
    </clipPath>
    <clipPath
       clipPathUnits="userSpaceOnUse"
       id="clipPath30">
      <path
         d="M 0,841.89 H 595.28 V 0 H 0 Z"
         transform="translate(-155.9088,-397.80471)"
         id="path30" />
    </clipPath>
    <clipPath
       clipPathUnits="userSpaceOnUse"
       id="clipPath32">
      <path
         d="M 0,841.89 H 595.28 V 0 H 0 Z"
         transform="translate(-349.96481,-397.80471)"
         id="path32" />
    </clipPath>
  </defs>
  <sodipodi:namedview
     id="namedview1"
     pagecolor="#ffffff"
     bordercolor="#000000"
     borderopacity="0.25"
     inkscape:showpageshadow="2"
     inkscape:pageopacity="0.0"
     inkscape:pagecheckerboard="0"
     inkscape:deskcolor="#d1d1d1">
    <inkscape:page
       x="0"
       y="0"
       inkscape:label="1"
       id="page1"
       width="793.70667"
       height="1122.52"
       margin="521.22534 207.87733 521.88"
       bleed="0" />
  </sodipodi:namedview>
  <g
     id="layer-MC0"
     inkscape:groupmode="layer"
     inkscape:label="Ebene 1">
    <path
       id="path1"
       d="M 0,0 -2.112,4.951 -4.225,0 Z m 2.86,-6.688 -1.606,3.74 h -6.733 l -1.584,-3.74 h -3.477 l 6.8,15.402 h 3.234 L 6.315,-6.688 Z"
       style="fill:#0f2752;fill-opacity:1;fill-rule:nonzero;stroke:none"
       transform="matrix(1.3333333,0,0,-1.3333333,348.93813,592.22973)" />
    <path
       id="path2"
       d="m 0,0 v -3.278 h 5.963 v -2.95 H 0 v -6.226 H -3.081 V 2.948 H 8.471 V 0 Z"
       style="fill:#0f2752;fill-opacity:1;fill-rule:nonzero;stroke:none"
       transform="matrix(1.3333333,0,0,-1.3333333,364.89187,584.54227)" />
    <path
       id="path3"
       d="m 0,0 h 5.303 c 2.508,0 2.882,1.363 2.882,2.178 0,1.364 -1.078,2.134 -2.948,2.134 L 0,4.312 Z m 7.877,-8.142 -3.96,5.7 H 0 v -5.7 H -3.081 V 7.261 h 7.944 c 3.19,0 6.424,-1.254 6.424,-4.753 0,-2.904 -1.892,-4.137 -3.938,-4.643 l 4.18,-6.007 z"
       style="fill:#0f2752;fill-opacity:1;fill-rule:nonzero;stroke:none"
       transform="matrix(1.3333333,0,0,-1.3333333,384.28387,590.29227)"
       clip-path="url(#clipPath4)" />
    <path
       id="path5"
       d="M 0,0 V 15.402 H 3.499 V 6.688 0 Z"
       style="fill:#0f2752;fill-opacity:1;fill-rule:nonzero;stroke:none"
       transform="matrix(1.3333333,0,0,-1.3333333,404.0912,601.14773)"
       clip-path="url(#clipPath6)" />
    <path
       id="path7"
       d="m 0,0 c -1.122,0 -2.223,0.154 -3.279,0.463 -1.034,0.308 -1.981,0.792 -2.794,1.452 -0.815,0.638 -1.452,1.474 -1.937,2.464 -0.462,0.968 -0.704,2.112 -0.704,3.433 0,1.276 0.242,2.419 0.704,3.41 0.485,0.99 1.122,1.826 1.937,2.486 0.813,0.66 1.738,1.166 2.794,1.496 1.034,0.33 2.157,0.507 3.279,0.507 2.288,0 4.422,-0.771 5.809,-1.343 0.154,-0.088 1.078,-0.483 1.078,-0.483 L 7.129,13.796 5.435,11.002 5.038,11.244 C 3.674,12.058 2.112,12.586 0.682,12.74 0.439,12.784 0.22,12.784 0,12.784 h -0.177 c -0.66,-0.022 -1.298,-0.132 -1.891,-0.33 -0.639,-0.22 -1.211,-0.528 -1.695,-0.946 C -4.247,11.09 -4.621,10.584 -4.907,9.968 -5.193,9.374 -5.348,8.67 -5.348,7.899 c 0,-0.792 0.155,-1.496 0.441,-2.089 0.286,-0.617 0.66,-1.123 1.144,-1.541 0.484,-0.418 1.056,-0.726 1.695,-0.946 0.66,-0.22 1.364,-0.33 2.068,-0.33 2.332,0 4.312,1.078 5.566,1.98 L 5.984,5.281 7.503,2.685 7.106,2.442 C 5.5,1.408 3.036,0.154 0.483,0 Z"
       style="fill:#0f2752;fill-opacity:1;fill-rule:nonzero;stroke:none"
       transform="matrix(1.3333333,0,0,-1.3333333,424.91147,601.29493)"
       clip-path="url(#clipPath8)" />
    <path
       id="path9"
       d="M 0,0 -2.112,4.951 -4.225,0 Z m 2.86,-6.688 -1.606,3.74 h -6.733 l -1.583,-3.74 h -3.477 L -3.74,8.714 h 3.234 L 6.315,-6.688 Z"
       style="fill:#0f2752;fill-opacity:1;fill-rule:nonzero;stroke:none"
       transform="matrix(1.3333333,0,0,-1.3333333,450.56773,592.22973)"
       clip-path="url(#clipPath10)" />
    <path
       id="path11"
       d="m 0,0 c -1.202,0 -2.389,-0.216 -3.531,-0.637 -1.142,-0.424 -2.177,-1.035 -3.076,-1.82 -0.896,-0.783 -1.623,-1.751 -2.162,-2.874 -0.541,-1.118 -0.813,-2.417 -0.813,-3.865 0,-1.445 0.273,-2.748 0.813,-3.867 0.537,-1.121 1.266,-2.087 2.163,-2.868 0.898,-0.786 1.933,-1.4 3.075,-1.82 1.144,-0.425 2.329,-0.638 3.531,-0.638 1.198,0 2.385,0.213 3.527,0.638 1.143,0.42 2.178,1.033 3.077,1.82 0.894,0.779 1.622,1.745 2.163,2.868 0.539,1.119 0.812,2.421 0.812,3.867 0,1.447 -0.273,2.747 -0.812,3.865 C 8.225,-4.203 7.495,-3.236 6.604,-2.457 5.705,-1.673 4.67,-1.061 3.527,-0.637 2.385,-0.216 1.2,0 0,0 m 0,-23.665 c -2.186,0 -4.267,0.27 -6.184,0.802 -1.943,0.537 -3.662,1.425 -5.108,2.634 -1.447,1.209 -2.609,2.753 -3.452,4.589 -0.841,1.827 -1.269,3.995 -1.269,6.444 0,2.443 0.428,4.613 1.269,6.447 0.842,1.833 2.003,3.374 3.452,4.587 1.446,1.21 3.161,2.127 5.099,2.728 1.922,0.596 4.006,0.901 6.193,0.901 2.183,0 4.267,-0.305 6.193,-0.902 1.94,-0.602 3.653,-1.519 5.096,-2.727 1.448,-1.212 2.61,-2.753 3.453,-4.587 0.841,-1.836 1.269,-4.006 1.269,-6.447 0,-2.448 -0.428,-4.617 -1.269,-6.444 -0.843,-1.836 -2.005,-3.38 -3.453,-4.589 C 9.842,-21.438 8.124,-22.327 6.18,-22.863 4.263,-23.395 2.183,-23.665 0,-23.665"
       style="fill:#0f2752;fill-opacity:1;fill-rule:nonzero;stroke:none"
       transform="matrix(1.3333333,0,0,-1.3333333,283.53427,536.10987)"
       clip-path="url(#clipPath12)" />
    <path
       id="path13"
       d="m 0,0 c -1.2,0 -2.389,-0.216 -3.53,-0.637 -1.14,-0.424 -2.176,-1.034 -3.077,-1.82 -0.892,-0.783 -1.62,-1.751 -2.16,-2.874 -0.541,-1.117 -0.815,-2.417 -0.815,-3.865 0,-1.447 0.274,-2.748 0.815,-3.867 0.539,-1.122 1.267,-2.087 2.162,-2.868 0.899,-0.787 1.935,-1.4 3.075,-1.819 1.143,-0.426 2.332,-0.639 3.53,-0.639 1.199,0 2.387,0.213 3.531,0.638 1.141,0.42 2.177,1.034 3.074,1.82 0.896,0.78 1.623,1.745 2.164,2.868 0.538,1.119 0.812,2.42 0.812,3.867 0,1.448 -0.274,2.747 -0.812,3.865 -0.544,1.126 -1.272,2.093 -2.164,2.874 -0.897,0.783 -1.933,1.395 -3.076,1.82 C 2.389,-0.216 1.2,0 0,0 m 0,-23.665 c -2.183,0 -4.263,0.27 -6.181,0.802 -1.943,0.536 -3.661,1.425 -5.11,2.634 -1.448,1.209 -2.608,2.754 -3.453,4.589 -0.841,1.827 -1.27,3.995 -1.27,6.444 0,2.443 0.429,4.613 1.27,6.447 0.844,1.833 2.005,3.373 3.453,4.587 1.447,1.21 3.162,2.127 5.098,2.728 1.926,0.596 4.008,0.901 6.193,0.901 2.184,0 4.269,-0.305 6.193,-0.902 1.942,-0.603 3.658,-1.52 5.097,-2.727 1.447,-1.211 2.611,-2.753 3.452,-4.587 0.843,-1.833 1.269,-4.003 1.269,-6.447 0,-2.449 -0.426,-4.617 -1.269,-6.444 -0.843,-1.837 -2.005,-3.38 -3.452,-4.589 C 9.844,-21.438 8.126,-22.326 6.18,-22.863 4.265,-23.395 2.184,-23.665 0,-23.665"
       style="fill:#0f2752;fill-opacity:1;fill-rule:nonzero;stroke:none"
       transform="matrix(1.3333333,0,0,-1.3333333,366.1656,536.10987)"
       clip-path="url(#clipPath14)" />
    <path
       id="path15"
       d="M 0,0 -22.864,26.411 V 0 h -6.933 v 37.096 h 7.248 L -0.555,11.669 V 37.096 H 6.38 V 0 Z"
       style="fill:#0f2752;fill-opacity:1;fill-rule:nonzero;stroke:none"
       transform="matrix(1.3333333,0,0,-1.3333333,247.6072,571.9016)"
       clip-path="url(#clipPath16)" />
    <path
       id="path17"
       d="m 0,0 h -6.064 l -12.382,28.565 h 6.88 L -3.032,8.693 5.501,28.565 h 6.88 z"
       style="fill:#0f2752;fill-opacity:1;fill-rule:nonzero;stroke:none"
       transform="matrix(1.3333333,0,0,-1.3333333,328.82973,567.37027)"
       clip-path="url(#clipPath18)" />
    <path
       id="path19"
       d="m 0,0 v 23.099 h -9.982 v 5.466 H 16.411 V 23.099 H 6.43 L 6.43,0 Z"
       style="fill:#0f2752;fill-opacity:1;fill-rule:nonzero;stroke:none"
       transform="matrix(1.3333333,0,0,-1.3333333,490.76853,567.37027)"
       clip-path="url(#clipPath20)" />
    <path
       id="path21"
       d="M 0,0 V 12.407 28.565 H 6.505 V 0 Z"
       style="fill:#0f2752;fill-opacity:1;fill-rule:nonzero;stroke:none"
       transform="matrix(1.3333333,0,0,-1.3333333,518.99893,567.37027)"
       clip-path="url(#clipPath22)" />
    <path
       id="path23"
       d="M 0,0 -3.924,9.179 -7.852,0 Z m 5.299,-12.407 -2.968,6.941 h -12.487 l -2.957,-6.941 h -6.438 l 12.629,28.565 h 5.993 L 11.7,-12.407 Z"
       style="fill:#0f2752;fill-opacity:1;fill-rule:nonzero;stroke:none"
       transform="matrix(1.3333333,0,0,-1.3333333,466.01333,550.82733)"
       clip-path="url(#clipPath24)" />
    <path
       id="path25"
       d="m 0,0 c -2.748,0 -5.419,0.38 -7.937,1.127 -2.532,0.749 -4.793,1.922 -6.728,3.491 -1.935,1.563 -3.489,3.544 -4.623,5.889 -1.133,2.333 -1.706,5.106 -1.706,8.249 0,3.093 0.574,5.858 1.706,8.218 1.131,2.363 2.685,4.369 4.623,5.96 1.937,1.589 4.198,2.798 6.726,3.595 2.518,0.794 5.189,1.199 7.939,1.199 5.575,0 10.749,-1.859 14.152,-3.258 0.386,-0.18 2.638,-1.166 2.638,-1.166 l -3.518,-5.863 -0.508,0.305 C 9.298,29.815 5.385,31.176 1.746,31.57 1.122,31.647 0.536,31.683 0,31.683 l -0.261,-0.004 -0.203,-0.01 c -1.682,-0.041 -3.303,-0.322 -4.826,-0.833 -1.68,-0.564 -3.158,-1.395 -4.404,-2.474 -1.245,-1.082 -2.248,-2.426 -2.987,-3.991 -0.739,-1.567 -1.115,-3.384 -1.115,-5.4 0,-2.02 0.376,-3.836 1.114,-5.404 0.744,-1.571 1.747,-2.914 2.988,-3.992 C -8.452,8.499 -6.973,7.668 -5.29,7.104 -3.609,6.541 -1.83,6.257 0,6.257 c 5.944,0 10.957,2.742 14.114,5.044 l 0.532,0.387 3.129,-5.401 -0.477,-0.308 C 13.363,3.463 7.368,0.389 1.15,0.032 0.766,0.017 0.386,0 0,0"
       style="fill:#0f2752;fill-opacity:1;fill-rule:nonzero;stroke:none"
       transform="matrix(1.3333333,0,0,-1.3333333,562.1304,572.1828)"
       clip-path="url(#clipPath26)" />
    <path
       id="path27"
       d="M 0,0 -9.311,-16.972 -18.621,0 h -6.31 v -28.565 h 5.695 v 17.743 l 9.925,-17.818 9.925,17.818 V -28.565 H 6.311 L 6.311,0 Z"
       style="fill:#0f2752;fill-opacity:1;fill-rule:nonzero;stroke:none"
       transform="matrix(1.3333333,0,0,-1.3333333,426.84133,529.28307)"
       clip-path="url(#clipPath28)" />
    <path
       id="path29"
       d="M 0,0 V 1.488 H 52.435 89.408 V 0 Z"
       style="fill:#0f2752;fill-opacity:1;fill-rule:nonzero;stroke:none"
       transform="matrix(1.3333333,0,0,-1.3333333,207.8784,592.11373)"
       clip-path="url(#clipPath30)" />
    <path
       id="path31"
       d="M 0,0 V 1.488 H 52.435 89.408 V 0 Z"
       style="fill:#0f2752;fill-opacity:1;fill-rule:nonzero;stroke:none"
       transform="matrix(1.3333333,0,0,-1.3333333,466.61973,592.11373)"
       clip-path="url(#clipPath32)" />
  </g>
</svg>
