<?xml version="1.0" encoding="UTF-8" standalone="no"?>
<!-- Created with Inkscape (http://www.inkscape.org/) -->

<svg
   version="1.1"
   id="svg1"
   width="213.25333"
   height="37.799999"
   viewBox="0 0 213.25333 37.799999"
   sodipodi:docname="PFN_logo_color_RGB.eps"
   xmlns:inkscape="http://www.inkscape.org/namespaces/inkscape"
   xmlns:sodipodi="http://sodipodi.sourceforge.net/DTD/sodipodi-0.dtd"
   xmlns="http://www.w3.org/2000/svg"
   xmlns:svg="http://www.w3.org/2000/svg">
  <defs
     id="defs1" />
  <sodipodi:namedview
     id="namedview1"
     pagecolor="#ffffff"
     bordercolor="#000000"
     borderopacity="0.25"
     inkscape:showpageshadow="2"
     inkscape:pageopacity="0.0"
     inkscape:pagecheckerboard="0"
     inkscape:deskcolor="#d1d1d1">
    <inkscape:page
       x="0"
       y="0"
       inkscape:label="1"
       id="page1"
       width="213.25333"
       height="37.799999"
       margin="0"
       bleed="0" />
  </sodipodi:namedview>
  <g
     id="g1"
     inkscape:groupmode="layer"
     inkscape:label="1">
    <g
       id="group-R5">
      <path
         id="path2"
         d="m 263.492,77.0039 c 5.348,10.6758 9.391,22.1094 11.875,34.1171 -1.59,1.43 -3.144,2.895 -4.652,4.402 -3.203,3.204 -6.203,6.598 -9.039,10.133 l -0.016,0.02 c -8.34,-7.649 -17.105,-14.817 -26.269,-21.442 l 0.007,-0.011 c 3.563,-4.4261 7.332,-8.6722 11.34,-12.6761 5.219,-5.2305 10.825,-10.086 16.754,-14.543"
         style="fill:#3676c4;fill-opacity:1;fill-rule:nonzero;stroke:none"
         transform="matrix(0.13333333,0,0,-0.13333333,0,37.8)" />
      <path
         id="path3"
         d="m 12.0586,199.754 c 3.707,-2.141 7.375,-4.336 10.9961,-6.598 l 0.0547,-0.035 c 8.4375,-5.266 16.6172,-10.906 24.582,-16.832 1.4766,-1.098 2.9531,-2.199 4.418,-3.324 0.8633,-0.668 1.7578,-1.305 2.6172,-1.973 l 0.0234,-0.023 0.6289,-0.508 c 2.4531,-1.926 4.8633,-3.895 7.2656,-5.883 0.3047,-0.254 0.6172,-0.492 0.918,-0.742 0.3672,-0.309 0.75,-0.598 1.1133,-0.902 l 0.0117,-0.012 0.1953,-0.164 c 0.6289,-0.528 1.2344,-1.086 1.8594,-1.621 0.3242,-0.27 0.6289,-0.547 0.9492,-0.821 1.4727,-1.269 2.9492,-2.539 4.4024,-3.836 0.7539,-0.664 1.5273,-1.3 2.2773,-1.976 l 0.3359,-0.309 c 0.6211,-0.566 1.2188,-1.152 1.8399,-1.718 1.2734,-1.164 2.5312,-2.352 3.789,-3.539 1.1368,-1.071 2.3047,-2.114 3.4297,-3.2 l 0.3946,-0.383 c 2.9492,-2.867 5.8593,-5.773 8.7148,-8.734 l 0.3047,-0.32 c 0.293,-0.305 0.5703,-0.621 0.8633,-0.922 0.6523,-0.684 1.2851,-1.395 1.9336,-2.082 l 0.5312,-0.57 c 0.4844,-0.516 0.9688,-1.036 1.4453,-1.559 0.4727,-0.504 0.9532,-1.004 1.4219,-1.516 0.766,-0.839 1.559,-1.652 2.32,-2.492 2.266,-2.523 4.504,-5.062 6.703,-7.644 24.375,4.886 47.758,13.742 69.356,26.339 -6.453,8.532 -13.207,16.825 -20.254,24.844 -2.289,2.61 -4.641,5.16 -6.992,7.711 -0.899,0.977 -1.781,1.957 -2.692,2.926 -0.433,0.465 -0.878,0.906 -1.312,1.367 l 0.023,0.031 c -1.597,1.692 -3.23,3.332 -4.855,4.996 -0.676,0.692 -1.34,1.387 -2.02,2.071 l -0.589,0.605 c -0.762,0.774 -1.54,1.535 -2.305,2.297 -1.664,1.649 -3.344,3.277 -5.031,4.899 -0.735,0.707 -1.465,1.433 -2.207,2.136 -0.598,0.571 -1.223,1.125 -1.829,1.692 -0.445,0.418 -0.898,0.824 -1.343,1.234 l -0.485,0.453 c -1.41,1.301 -2.808,2.613 -4.238,3.903 -3.223,2.906 -6.48,5.769 -9.789,8.582 -1.051,0.894 -2.129,1.753 -3.188,2.632 -2.609,2.168 -5.226,4.317 -7.882,6.426 -0.262,0.211 -0.532,0.414 -0.7972,0.625 -0.668,0.524 -1.336,1.039 -2.004,1.563 -0.4101,0.324 -0.8281,0.644 -1.2421,0.968 l -0.711,0.559 c -2.3359,1.805 -4.6875,3.57 -7.0625,5.328 -1.2148,0.899 -2.4258,1.809 -3.6523,2.695 -2.625,1.899 -5.2813,3.766 -7.9531,5.606 -1.2071,0.836 -2.3985,1.695 -3.6133,2.516 l -0.4219,0.281 c -4.875,3.289 -9.832,6.472 -14.8516,9.566 C 38.6406,240.543 22.5586,221.746 12.0586,199.754"
         style="fill:#3676c4;fill-opacity:1;fill-rule:nonzero;stroke:none"
         transform="matrix(0.13333333,0,0,-0.13333333,0,37.8)" />
      <path
         id="path4"
         d="M 231.582,52.8203 C 226.207,65.5234 220.191,77.8828 213.68,89.9336 202.184,83.082 190.195,76.9766 177.75,71.7109 168.27,67.6953 158.633,64.2227 148.855,61.2461 158.973,43.1875 167.637,24.2148 174.598,4.44141 c 23.8,6.36329 45.093,18.83199 62.101,35.64449 -1.648,4.2774 -3.34,8.5235 -5.117,12.7344"
         style="fill:#3676c4;fill-opacity:1;fill-rule:nonzero;stroke:none"
         transform="matrix(0.13333333,0,0,-0.13333333,0,37.8)" />
      <path
         id="path5"
         d="M 0,118.945 C 3.45313,95.5977 12.6602,74.1172 26.1563,56.0234 32.6016,55.1875 39.1055,54.5703 45.668,54.168 45.4766,58.4141 45.375,62.6719 45.375,66.9492 45.3711,81.707 46.5078,96.2891 48.7188,110.602 31.9023,111.656 15.6211,114.508 0,118.945"
         style="fill:#3676c4;fill-opacity:1;fill-rule:nonzero;stroke:none"
         transform="matrix(0.13333333,0,0,-0.13333333,0,37.8)" />
      <path
         id="path6"
         d="m 113.086,221.02 c 0.652,-0.547 1.324,-1.082 1.977,-1.629 3.515,-2.981 6.968,-6.028 10.386,-9.11 1.117,-1.011 2.223,-2.043 3.328,-3.062 h 0.008 c 8.016,11.34 16.922,22.008 26.719,31.808 11.082,11.078 23.223,21.082 36.25,29.868 -13.34,5.511 -27.723,8.992 -42.762,10.125 -6.043,-5.098 -11.883,-10.434 -17.465,-16.02 -10.418,-10.414 -20.004,-21.676 -28.668,-33.641 l -0.015,-0.031 c 0.379,-0.301 0.769,-0.601 1.156,-0.902 3.066,-2.434 6.094,-4.903 9.086,-7.406"
         style="fill:#3676c4;fill-opacity:1;fill-rule:nonzero;stroke:none"
         transform="matrix(0.13333333,0,0,-0.13333333,0,37.8)" />
      <path
         id="path7"
         d="m 84.9219,49.4063 c -0.0586,0.8242 -0.1367,1.6406 -0.1875,2.4609 -0.0508,0.8281 -0.1446,1.6523 -0.1875,2.4805 -0.211,4.1757 -0.3242,8.375 -0.3242,12.6015 0.0039,15.2071 1.4648,30.0547 4.1328,44.4808 0.1484,0.84 0.2812,1.683 0.4492,2.523 0.1641,0.844 0.3008,1.699 0.4766,2.539 0.9296,4.504 2.0156,8.949 3.1875,13.36 -8.6993,9.269 -17.8711,18.05 -27.4688,26.328 -4.4922,-13.223 -8.0117,-26.903 -10.4805,-40.93 -0.1406,-0.812 -0.2656,-1.641 -0.4023,-2.461 -0.1367,-0.82 -0.2813,-1.637 -0.4102,-2.453 -2.2226,-14.1446 -3.3906,-28.629 -3.3906,-43.3868 0,-4.3789 0.1172,-8.7344 0.3164,-13.0664 0.0391,-0.8242 0.0781,-1.6484 0.125,-2.4765 0.0469,-0.8321 0.1055,-1.6602 0.1602,-2.4883 0.4336,-6.7617 1.1093,-13.4688 2.0195,-20.0938 C 64.5,19.8945 77.4844,12.7305 91.5078,7.74609 88.1445,21.2188 85.9414,35.1445 84.9219,49.4063"
         style="fill:#3676c4;fill-opacity:1;fill-rule:nonzero;stroke:none"
         transform="matrix(0.13333333,0,0,-0.13333333,0,37.8)" />
      <path
         id="path8"
         d="m 200.719,202.645 c 0,-13.024 1.617,-25.676 4.609,-37.793 6.652,5.328 13.027,10.957 19.008,16.953 l 0.215,0.215 c 2.422,2.437 4.789,4.921 7.094,7.46 l 0.054,0.055 c 1.133,1.25 2.203,2.547 3.313,3.817 -0.231,3.07 -0.387,6.164 -0.387,9.293 0,11.707 1.664,23.003 4.699,33.71 -8.347,8.708 -17.785,16.352 -28.133,22.676 -6.742,-17.519 -10.476,-36.527 -10.472,-56.386"
         style="fill:#3676c4;fill-opacity:1;fill-rule:nonzero;stroke:none"
         transform="matrix(0.13333333,0,0,-0.13333333,0,37.8)" />
      <path
         id="path9"
         d="m 230.273,106.727 c 0.672,0.476 1.364,0.941 2.032,1.429 3.758,2.715 7.445,5.52 11.062,8.403 3.321,2.656 6.574,5.394 9.778,8.195 1.242,1.09 2.48,2.176 3.707,3.289 l 0.511,0.465 c 0.414,0.371 0.825,0.754 1.235,1.129 0.578,0.527 1.16,1.043 1.73,1.578 l 0.098,0.086 c 0.605,0.566 1.215,1.137 1.816,1.711 0.813,0.773 1.61,1.566 2.414,2.351 l 0.653,0.629 c 0.785,0.778 1.566,1.559 2.343,2.344 1.078,1.078 2.157,2.164 3.223,3.262 1.203,1.246 2.43,2.488 3.617,3.757 1.145,1.223 2.293,2.446 3.418,3.692 -1.586,23.715 -9.078,45.801 -21.023,64.824 -1.219,-1.832 -2.453,-3.644 -3.719,-5.437 h -0.004 c -1.965,-2.782 -3.988,-5.516 -6.074,-8.207 -0.203,-0.262 -0.418,-0.524 -0.629,-0.786 -0.797,-1.027 -1.637,-2.015 -2.457,-3.027 -0.527,-0.648 -1.055,-1.309 -1.594,-1.957 -0.484,-0.594 -0.957,-1.203 -1.449,-1.789 -0.293,-0.348 -0.574,-0.699 -0.871,-1.043 l -0.539,-0.605 -0.379,-0.426 c -0.426,-0.5 -0.871,-0.973 -1.301,-1.461 -0.644,-0.731 -1.289,-1.461 -1.941,-2.184 l -0.242,-0.273 c -0.473,-0.52 -0.926,-1.059 -1.407,-1.582 -0.449,-0.489 -0.898,-0.985 -1.355,-1.473 l -0.067,-0.062 c -2.074,-2.223 -4.191,-4.407 -6.355,-6.543 l -0.293,-0.301 -0.031,-0.027 c -0.555,-0.551 -1.145,-1.071 -1.711,-1.614 -1.688,-1.625 -3.383,-3.242 -5.117,-4.812 l -0.657,-0.617 -0.476,-0.418 c -0.399,-0.352 -0.813,-0.692 -1.207,-1.039 -1.731,-1.528 -3.473,-3.032 -5.239,-4.504 l -0.46,-0.395 c -0.508,-0.422 -1.016,-0.832 -1.524,-1.242 l -0.223,-0.176 c -0.933,-0.758 -1.89,-1.484 -2.839,-2.226 -0.711,-0.559 -1.422,-1.133 -2.149,-1.684 -0.336,-0.258 -0.664,-0.527 -1,-0.785 l -0.211,-0.16 c -0.301,-0.239 -0.594,-0.481 -0.894,-0.711 l -0.555,-0.391 -0.016,-0.008 c -2.601,-1.937 -5.23,-3.836 -7.918,-5.664 v -0.008 c -0.257,-0.168 -0.507,-0.359 -0.765,-0.535 -1.774,-1.191 -3.578,-2.347 -5.387,-3.496 -0.402,-0.254 -0.785,-0.515 -1.187,-0.765 l -0.008,0.011 c -0.543,-0.34 -1.082,-0.679 -1.621,-1.011 -0.703,-0.438 -1.422,-0.852 -2.129,-1.282 -0.723,-0.433 -1.446,-0.875 -2.172,-1.297 -21.047,-12.351 -44.16,-21.449 -68.75,-26.668 -0.902,-0.195 -1.801,-0.39 -2.703,-0.57 -0.914,-0.18 -1.824,-0.371 -2.742,-0.543 -4.317,-0.805 -8.6802,-1.473 -13.0747,-2.039 C 90.6445,97.3242 89.168,82.2539 89.168,66.9492 c 0,-4.082 0.1093,-8.1484 0.3125,-12.1953 17.8285,1.5977 35.2105,4.8047 51.9805,9.4961 0.82,0.2305 1.641,0.4648 2.461,0.7031 0.82,0.2383 1.633,0.4844 2.457,0.7344 10.051,3.0039 19.887,6.5313 29.445,10.5742 12.305,5.211 24.156,11.2656 35.508,18.0508 0.719,0.4297 1.441,0.8398 2.152,1.2695 0.704,0.4297 1.395,0.8946 2.098,1.3282 0.691,0.4375 1.387,0.8789 2.078,1.3203 l 0.024,0.0078 c 3.582,2.2737 7.089,4.6447 10.562,7.0667 0.68,0.468 1.352,0.941 2.027,1.422"
         style="fill:#3676c4;fill-opacity:1;fill-rule:nonzero;stroke:none"
         transform="matrix(0.13333333,0,0,-0.13333333,0,37.8)" />
      <path
         id="path10"
         d="m 731.16,135.77 v 95.484 H 464.598 V 135.77 Z m 47.735,26.843 c 0,-41.195 -33.399,-74.5935 -74.594,-74.5935 H 464.598 V 4.47656 H 416.859 V 204.203 c 0,41.301 33.485,74.785 74.786,74.785 h 212.656 c 41.195,0 74.594,-33.398 74.594,-74.597 v -41.778"
         style="fill:#2e434d;fill-opacity:1;fill-rule:nonzero;stroke:none"
         transform="matrix(0.13333333,0,0,-0.13333333,0,37.8)" />
      <path
         id="path11"
         d="M 1189.69,117.863 H 875.387 V 4.47656 H 827.645 V 204.391 c 0,41.281 33.316,74.597 74.597,74.597 H 1189.69 V 231.254 H 875.387 v -65.652 h 314.303 v -47.739"
         style="fill:#2e434d;fill-opacity:1;fill-rule:nonzero;stroke:none"
         transform="matrix(0.13333333,0,0,-0.13333333,0,37.8)" />
      <path
         id="path12"
         d="M 1599.37,278.988 V 53.707 c 0,-29.8398 -23.87,-53.70309375 -53.71,-53.70309375 -14.92,0 -28.35,5.96484375 -38.29,15.91019375 L 1282.09,244.676 V 4.47656 h -47.74 V 229.754 c 0,29.84 23.86,53.711 53.71,53.711 14.91,0 28.35,-5.969 38.29,-15.914 L 1551.63,38.7891 V 278.988 h 47.74"
         style="fill:#2e434d;fill-opacity:1;fill-rule:nonzero;stroke:none"
         transform="matrix(0.13333333,0,0,-0.13333333,0,37.8)" />
    </g>
  </g>
</svg>
