<?xml version="1.0" encoding="UTF-8"?>
<!DOCTYPE svg PUBLIC "-//W3C//DTD SVG 1.1//EN" "http://www.w3.org/Graphics/SVG/1.1/DTD/svg11.dtd">
<!-- Creator: CorelDRAW 2019 (64-Bit) -->
<svg xmlns="http://www.w3.org/2000/svg" xml:space="preserve" width="210mm" height="297mm" version="1.1" style="shape-rendering:geometricPrecision; text-rendering:geometricPrecision; image-rendering:optimizeQuality; fill-rule:evenodd; clip-rule:evenodd"
viewBox="0 0 21000 29700"
 xmlns:xlink="http://www.w3.org/1999/xlink">
 <defs>
  <style type="text/css">
   <![CDATA[
    .fil5 {fill:#FEFEFE}
    .fil4 {fill:#FEFEFE;fill-rule:nonzero}
    .fil1 {fill:#848688;fill-rule:nonzero}
    .fil2 {fill:#373435;fill-rule:nonzero}
    .fil0 {fill:#201E1E;fill-rule:nonzero}
    .fil3 {fill:#201E1E;fill-rule:nonzero}
   ]]>
  </style>
 </defs>
 <g id="Layer_x0020_1">
  <metadata id="CorelCorpID_0Corel-Layer"/>
  <g id="_2237743099728">
   <g>
    <path class="fil0" d="M10088.12 1359.37c-159.67,0 -239.44,-54.36 -239.44,-163.2 0,-24.42 3.88,-51.54 11.79,-81.2l52.22 -195.49c43.6,-162.89 163.19,-244.38 358.7,-244.38l537.61 0 -38.58 146.64 -538.19 0c-65.11,0 -106.44,32.62 -124.06,97.74l-52.21 195.49c-3.65,14.09 -5.47,26.33 -5.47,37.21 0,40.43 25.62,60.56 76.67,60.56l342.12 0 32.86 -122.12 -220.04 0 39.65 -146.64 415.37 0 -111.36 415.39 -537.64 0z"/>
    <path class="fil0" d="M12141.78 675.1l293.24 0c159.66,0 239.43,54.38 239.43,163.36 0,24.38 -3.86,51.38 -11.68,81.02l-65.56 244.36c-34.81,130.42 -149.97,195.53 -345.46,195.53l-293.24 0c-159.68,0 -239.47,-54.36 -239.47,-163.21 0,-24.41 3.79,-51.54 11.7,-81.19l52.19 -195.49c43.73,-162.89 163.34,-244.38 358.85,-244.38zm325.5 244.38c3.56,-14.08 5.38,-26.34 5.38,-37.07 0,-40.53 -25.65,-60.66 -76.66,-60.66l-293.27 0c-65.26,0 -106.55,32.62 -124.19,97.73l-52.31 195.49c-3.65,14.1 -5.37,26.44 -5.37,37.21 0,40.32 25.62,60.57 76.79,60.57l293.27 0c65.11,0 106.43,-32.49 124.07,-97.78l52.29 -195.49z"/>
    <path class="fil0" d="M13492.38 675.1l195.49 0 -131.05 488.74c-34.81,130.42 -149.94,195.53 -345.42,195.53l-293.27 0c-159.56,0 -239.43,-54.36 -239.43,-163.21 0,-24.41 3.87,-51.54 11.64,-81.19l117.81 -439.87 195.51 0 -117.81 439.87c-3.56,14.1 -5.39,26.44 -5.39,37.21 0,40.32 25.68,60.57 76.83,60.57l293.22 0c65.16,0 106.46,-32.49 124.12,-97.78l117.75 -439.87z"/>
    <path class="fil0" d="M11520.84 870.72l-6.33 24.38c-8.8,32.51 -37.63,48.87 -86.52,48.87l-418.29 0c13.23,-49.68 24.97,-94.34 31.93,-122.11l419.1 0c41.33,0 62.16,11.67 62.16,35.12 0,4.26 -0.7,8.84 -2.05,13.74zm-20.99 -195.61l-610.52 0 -39.46 146.75 0.02 0 -32.8 122.11 -0.09 0 -111.37 415.4 195.49 0 71.9 -268.76 415.33 0c37.24,0 55.79,51.96 55.79,155.79 0,32.62 -1.86,70.29 -5.26,112.97l195.47 0c7.68,-52.06 11.7,-99.34 11.7,-141.69 0,-75.34 -12.49,-135.1 -37.2,-179.38 50.47,-32.62 84.1,-80.35 101.15,-143.2l6.33 -24.38c5.49,-21.28 8.35,-40.85 8.35,-58.72 0,-91.24 -74.99,-136.89 -224.83,-136.89z"/>
    <path class="fil0" d="M14399.71 870.62l-6.3 24.48c-8.82,32.51 -37.65,48.87 -86.52,48.87l-419.16 0c11.12,-41.66 22.49,-84.45 32.35,-122.1l419.55 0c41.27,0 62.09,11.66 62.09,35.11 0,4.26 -0.63,8.84 -2.01,13.64zm-20.96 -195.51l-610.39 0 -2.13 7.83 -1.16 4.37 -36.36 134.56 0.12 0 -52.64 195.37 0.14 0.1 -91.82 342.02 195.51 0 71.9 -268.75 415.33 0c179.26,0 286.51,-65.24 321.67,-195.51l6.28 -24.48c5.52,-21.18 8.36,-40.75 8.36,-58.61 0,-91.24 -74.99,-136.9 -224.81,-136.9z"/>
    <path class="fil0" d="M6680.56 1361.9c-163.8,0 -245.74,-55.87 -245.74,-167.57 0,-25.08 4.01,-52.82 12.03,-83.35l53.76 -200.65c44.66,-167.12 167.45,-250.69 368.11,-250.69l551.84 0 -39.75 150.44 -552.16 0c-66.93,0 -109.42,33.51 -127.48,100.25l-53.55 200.65c-3.77,14.43 -5.53,27.13 -5.53,38.1 0,41.59 26.23,62.3 78.52,62.3l351.16 0 33.69 -125.48 -225.74 0 40.75 -150.51 426.25 0 -114.35 426.51 -551.81 0z"/>
    <polygon class="fil0" points="4572.77,678.31 4479.85,947.06 3991.08,947.06 4084.06,678.31 3888.64,678.31 3651.5,1362.47 3846.99,1362.47 3939.93,1093.68 4428.8,1093.68 4335.84,1362.47 4531.33,1362.47 4768.27,678.31 "/>
    <path class="fil0" d="M5097.7 668.68l-507.07 693.78 203.03 0 97.9 -142.73 318.75 0 14.79 142.73 203.17 0 -103.38 -693.78 -227.19 0zm70.16 149.73l28.61 274.94 -217.48 0 188.87 -274.94z"/>
    <polygon class="fil0" points="6290.83,668.68 6150.14,1152.64 6147.97,1152.64 5924.46,668.68 5705.8,668.68 5503.93,1362.46 5686.58,1362.46 5827.38,878.62 5829.47,878.62 6066.58,1362.46 6271.49,1362.46 6473.61,668.68 "/>
    <polygon class="fil0" points="7530.99,668.68 7329,1362.46 7980.95,1362.46 8019.53,1230.38 7555.96,1230.38 7602.29,1071.03 8038.74,1071.03 8075.46,944.56 7639.15,944.56 7680.95,800.92 8140.59,800.92 8179.07,668.68 "/>
    <polygon class="fil0" points="8296.49,668.68 8094.47,1362.46 8705.81,1362.46 8745.86,1224.52 8323.28,1224.52 8484.99,668.68 "/>
    <path class="fil0" d="M9233.25 668.68l-507.07 693.78 203.05 0 97.87 -142.73 318.74 0 14.66 142.73 203.3 0 -103.25 -693.78 -227.3 0zm70.14 149.73l28.72 274.94 -217.6 0 188.88 -274.94z"/>
    <path class="fil0" d="M13759.17 1467.54l-10860.66 0 34.07 -119.4 409.64 -0.67c142.51,4.56 239.24,-63.53 290.4,-203.52l70.61 -219.09c50.38,-155.8 -27.79,-259.73 -157.01,-259.73l-618.44 0 -45.67 141.85 -15.34 0c-127.28,0 -306.51,86.07 -409.99,165.61l371.76 0 -15.22 47.19 -24.62 76.54 -453.25 0 -83.35 165.63 483.13 0 -138.69 430.51 237.7 0 38.49 -134.61 10862.98 0 23.46 -90.31zm-10661.44 -657.71l323.72 0.9c60.57,0.25 62.25,72.58 48.85,128.1 -25.95,90.54 -46.78,263.52 -145.58,263.52l-345.53 0 118.54 -392.52z"/>
   </g>
   <path class="fil1" d="M6383.5 1712.06l35.39 164.79 -22.83 106.93 54.79 0 22.84 -106.93 105.42 -164.79 -59.37 0 -60.51 105.03 -0.76 0 -13.32 -105.03 -61.65 0zm173.54 135.86c-17.51,82.58 -19.8,141.19 62.41,141.19 82.2,0 105.03,-58.61 122.54,-141.19 17.51,-82.58 19.79,-141.19 -62.41,-141.19 -82.21,0 -105.04,58.61 -122.54,141.19zm54.79 0c15.23,-72.69 26.65,-100.85 58.99,-100.85 32.35,0 31.59,28.16 16.37,100.85 -15.6,73.07 -26.64,100.85 -58.99,100.85 -32.34,0 -31.97,-27.78 -16.37,-100.85zm188.01 -135.86l-40.34 189.52c-15.61,72.69 23.59,87.53 68.12,87.53 44.52,0 90.57,-18.27 105.41,-87.53l40.34 -189.52 -54.8 0 -40.34 189.52c-5.71,27.02 -16.36,47.19 -41.86,47.19 -25.5,0 -27.78,-20.17 -22.08,-47.19l40.34 -189.52 -54.79 0zm254.21 40.34l25.88 0c24.73,0 35.39,12.56 30.07,37.68 -6.09,29.3 -23.6,40.72 -49.86,40.72l-22.84 0 16.75 -78.4zm-103.89 231.38l54.79 0 24.37 -114.93 29.3 0c22.07,0 28.92,12.94 25.12,34.25l-9.52 52.14c-1.9,10.65 -3.05,20.93 0.76,28.54l59.37 0 0.38 -2.28c-9.13,-5.33 -7.23,-20.17 -1.91,-48.72 11.8,-57.46 10.29,-78.01 -25.87,-82.96l0 -0.76c32.35,-6.46 51.76,-30.82 59.75,-66.97 9.89,-46.43 -12.56,-70.03 -57.47,-70.03l-101.23 0 -57.84 271.72zm302.93 0l54.8 0 23.21 -108.46 29.3 0c51.76,0 91.73,-25.5 103.52,-81.82 8.75,-40.72 -1.52,-81.44 -57.08,-81.44l-95.91 0 -57.84 271.72zm103.89 -231.38l22.84 0c27.4,0 35.01,15.22 29.3,41.86 -6.09,27.78 -23.6,40.72 -45.29,40.72l-24.35 0 17.5 -82.58zm197.51 0l25.88 0c24.74,0 35.39,12.56 30.07,37.68 -6.09,29.3 -23.6,40.72 -49.86,40.72l-22.84 0 16.75 -78.4zm-103.89 231.38l54.8 0 24.36 -114.93 29.3 0c22.08,0 28.92,12.94 25.12,34.25l-9.52 52.14c-1.9,10.65 -3.04,20.93 0.77,28.54l59.36 0 0.38 -2.28c-9.13,-5.33 -7.23,-20.17 -1.9,-48.72 11.8,-57.46 10.28,-78.01 -25.88,-82.96l0 -0.76c32.35,-6.46 51.76,-30.82 59.75,-66.97 9.9,-46.43 -12.55,-70.03 -57.46,-70.03l-101.24 0 -57.84 271.72zm269.06 0l57.84 -271.72 -54.8 0 -57.84 271.72 54.8 0zm80.74 -271.72l4.57 271.72 70.47 0 120.26 -271.72 -56.71 0 -82.96 200.94 -1.14 0 4.19 -200.94 -58.68 0zm124.38 271.72l57.09 0 24.73 -57.46 72.31 0 0.38 57.46 57.09 0 -14.08 -271.72 -67.74 0 -129.78 271.72zm152.99 -224.53l0.77 0 0.37 122.16 -53.28 0 52.14 -122.16zm100.09 -47.19l-9.51 44.91 59.37 0 -48.34 226.81 54.8 0 48.33 -226.81 59.37 0 9.51 -44.91 -173.53 0zm197.12 0l-57.84 271.72 155.66 0 9.51 -44.91 -100.85 0 15.6 -73.06 91.34 0 9.51 -44.91 -91.33 0 13.69 -63.93 97.05 0 9.51 -44.91 -151.85 0zm197.52 271.72l57.09 0 24.73 -57.46 72.31 0 0.38 57.46 57.09 0 -14.08 -271.72 -67.74 0 -129.78 271.72zm152.99 -224.53l0.77 0 0.37 122.16 -53.28 0 52.14 -122.16zm135.48 -47.19l-57.84 271.72 50.23 0 40.34 -190.28 0.76 0 26.64 190.28 62.41 0 57.85 -271.72 -50.23 0 -39.59 186.1 -0.75 0 -26.64 -186.1 -63.18 0zm163.27 271.72l86.38 0c72.7,0 102.38,-43.38 122.92,-139.67 17.13,-79.91 14.47,-132.05 -61.65,-132.05l-89.81 0 -57.84 271.72zm103.89 -231.38l23.22 0c41.85,0 40.34,31.59 27.02,93.24 -15.61,73.83 -28.17,97.8 -66.22,97.8l-24.36 0 40.34 -191.04zm412.54 51.37c8.37,-39.57 14.84,-97.04 -63.56,-97.04 -82.2,0 -105.04,58.61 -122.54,141.19 -17.5,82.58 -19.79,141.19 62.41,141.19 71.93,0 97.04,-50.61 109.61,-109.22l-54.81 0c-12.56,58.61 -28.92,68.88 -48.71,68.88 -23.59,0 -31.97,-14.84 -14.46,-97.04 16.36,-76.88 28.54,-104.66 56.33,-104.66 24.73,0 29.3,17.13 20.92,56.7l54.81 0zm18.26 44.15c-17.5,82.58 -19.79,141.19 62.42,141.19 82.2,0 105.03,-58.61 122.54,-141.19 17.5,-82.58 19.78,-141.19 -62.41,-141.19 -82.21,0 -105.04,58.61 -122.55,141.19zm54.8 0c15.23,-72.69 26.64,-100.85 58.99,-100.85 32.35,0 31.59,28.16 16.36,100.85 -15.6,73.07 -26.63,100.85 -58.98,100.85 -32.35,0 -31.97,-27.78 -16.37,-100.85zm237.47 -95.52l25.89 0c24.73,0 35.39,12.56 30.06,37.68 -6.09,29.3 -23.6,40.72 -49.86,40.72l-22.83 0 16.74 -78.4zm-103.89 231.38l54.8 0 24.36 -114.93 29.31 0c22.07,0 28.91,12.94 25.11,34.25l-9.52 52.14c-1.9,10.65 -3.04,20.93 0.77,28.54l59.37 0 0.37 -2.28c-9.13,-5.33 -7.23,-20.17 -1.9,-48.72 11.8,-57.46 10.28,-78.01 -25.87,-82.96l0 -0.76c32.34,-6.46 51.75,-30.82 59.74,-66.97 9.9,-46.43 -12.55,-70.03 -57.46,-70.03l-101.24 0 -57.84 271.72zm211.6 0l54.79 0 23.22 -108.46 29.3 0c51.76,0 91.72,-25.5 103.52,-81.82 8.75,-40.72 -1.52,-81.44 -57.08,-81.44l-95.91 0 -57.84 271.72zm103.89 -231.38l22.83 0c27.4,0 35.02,15.22 29.31,41.86 -6.09,27.78 -23.6,40.72 -45.29,40.72l-24.35 0 17.5 -82.58zm116.83 95.52c-17.5,82.58 -19.79,141.19 62.41,141.19 82.21,0 105.04,-58.61 122.55,-141.19 17.5,-82.58 19.78,-141.19 -62.41,-141.19 -82.21,0 -105.05,58.61 -122.55,141.19zm54.8 0c15.23,-72.69 26.64,-100.85 58.99,-100.85 32.35,0 31.58,28.16 16.36,100.85 -15.6,73.07 -26.63,100.85 -58.98,100.85 -32.35,0 -31.97,-27.78 -16.37,-100.85zm237.47 -95.52l25.88 0c24.74,0 35.4,12.56 30.07,37.68 -6.09,29.3 -23.6,40.72 -49.86,40.72l-22.83 0 16.74 -78.4zm-103.89 231.38l54.8 0 24.36 -114.93 29.3 0c22.08,0 28.92,12.94 25.12,34.25l-9.52 52.14c-1.9,10.65 -3.04,20.93 0.77,28.54l59.36 0 0.38 -2.28c-9.13,-5.33 -7.23,-20.17 -1.9,-48.72 11.8,-57.46 10.28,-78.01 -25.87,-82.96l0 -0.76c32.34,-6.46 51.75,-30.82 59.74,-66.97 9.9,-46.43 -12.55,-70.03 -57.46,-70.03l-101.24 0 -57.84 271.72zm192.56 0l57.09 0 24.73 -57.46 72.31 0 0.38 57.46 57.09 0 -14.08 -271.72 -67.74 0 -129.78 271.72zm152.99 -224.53l0.77 0 0.37 122.16 -53.28 0 52.14 -122.16zm100.09 -47.19l-9.51 44.91 59.37 0 -48.34 226.81 54.8 0 48.33 -226.81 59.37 0 9.51 -44.91 -173.53 0zm197.13 0l-57.85 271.72 155.66 0 9.51 -44.91 -100.85 0 15.6 -73.06 91.34 0 9.51 -44.91 -91.33 0 13.69 -63.93 97.05 0 9.51 -44.91 -151.84 0zm219.21 271.72l86.38 0c72.7,0 102.38,-43.38 122.93,-139.67 17.12,-79.91 14.46,-132.05 -61.65,-132.05l-89.82 0 -57.84 271.72zm103.89 -231.38l23.22 0c41.86,0 40.34,31.59 27.02,93.24 -15.61,73.83 -28.16,97.8 -66.22,97.8l-24.36 0 40.34 -191.04zm169.73 -40.34l-57.84 271.72 155.65 0 9.51 -44.91 -100.84 0 15.59 -73.06 91.34 0 9.51 -44.91 -91.33 0 13.7 -63.93 97.05 0 9.51 -44.91 -151.85 0zm125.21 271.72l54.8 0 25.12 -117.97 91.34 0 9.51 -44.91 -91.33 0 13.69 -63.93 97.05 0 9.51 -44.91 -151.84 0 -57.85 271.72zm234.05 -271.72l-57.85 271.72 155.66 0 9.51 -44.91 -100.85 0 15.6 -73.06 91.34 0 9.51 -44.91 -91.33 0 13.69 -63.93 97.05 0 9.51 -44.91 -151.84 0zm183.05 0l-57.84 271.72 50.23 0 40.34 -190.28 0.77 0 26.63 190.28 62.41 0 57.85 -271.72 -50.23 0 -39.58 186.1 -0.76 0 -26.64 -186.1 -63.18 0zm369.91 91.71c8.37,-39.57 14.85,-97.04 -63.55,-97.04 -82.2,0 -105.04,58.61 -122.54,141.19 -17.51,82.58 -19.8,141.19 62.41,141.19 71.92,0 97.04,-50.61 109.6,-109.22l-54.8 0c-12.56,58.61 -28.92,68.88 -48.71,68.88 -23.59,0 -31.97,-14.84 -14.46,-97.04 16.36,-76.88 28.54,-104.66 56.32,-104.66 24.74,0 29.31,17.13 20.93,56.7l54.8 0zm52.9 -91.71l-57.84 271.72 155.65 0 9.51 -44.91 -100.85 0 15.6 -73.06 91.34 0 9.51 -44.91 -91.33 0 13.7 -63.93 97.05 0 9.51 -44.91 -151.85 0zm216.55 271.72l54.8 0 25.11 -117.97 91.34 0 9.51 -44.91 -91.33 0 13.7 -63.93 97.05 0 9.51 -44.91 -151.85 0 -57.84 271.72zm199.41 -135.86c-17.5,82.58 -19.79,141.19 62.42,141.19 82.2,0 105.03,-58.61 122.54,-141.19 17.5,-82.58 19.79,-141.19 -62.41,-141.19 -82.21,0 -105.04,58.61 -122.55,141.19zm54.8 0c15.23,-72.69 26.65,-100.85 58.99,-100.85 32.35,0 31.59,28.16 16.37,100.85 -15.6,73.07 -26.64,100.85 -58.99,100.85 -32.35,0 -31.97,-27.78 -16.37,-100.85zm237.48 -95.52l25.88 0c24.73,0 35.39,12.56 30.06,37.68 -6.09,29.3 -23.6,40.72 -49.86,40.72l-22.83 0 16.75 -78.4zm-103.9 231.38l54.8 0 24.36 -114.93 29.31 0c22.07,0 28.91,12.94 25.11,34.25l-9.51 52.14c-1.91,10.65 -3.05,20.93 0.76,28.54l59.37 0 0.37 -2.28c-9.13,-5.33 -7.22,-20.17 -1.9,-48.72 11.8,-57.46 10.28,-78.01 -25.87,-82.96l0 -0.76c32.35,-6.46 51.75,-30.82 59.74,-66.97 9.9,-46.43 -12.55,-70.03 -57.46,-70.03l-101.23 0 -57.85 271.72zm420.91 -180.01c8.37,-39.57 14.84,-97.04 -63.56,-97.04 -82.2,0 -105.04,58.61 -122.54,141.19 -17.5,82.58 -19.79,141.19 62.41,141.19 71.93,0 97.04,-50.61 109.61,-109.22l-54.81 0c-12.55,58.61 -28.92,68.88 -48.71,68.88 -23.59,0 -31.97,-14.84 -14.46,-97.04 16.37,-76.88 28.54,-104.66 56.33,-104.66 24.73,0 29.3,17.13 20.92,56.7l54.81 0zm52.89 -91.71l-57.84 271.72 155.65 0 9.52 -44.91 -100.85 0 15.6 -73.06 91.33 0 9.51 -44.91 -91.33 0 13.7 -63.93 97.05 0 9.51 -44.91 -151.85 0z"/>
   <g id="Shield_x0020_P.cdr">
    <path class="fil2" d="M17719.17 2373.14c-839.42,-356.16 -996.17,-1025.8 -985.95,-1697.36 343.43,-80.84 672.75,-197.1 985.99,-350.74 313.25,153.64 642.51,269.5 985.95,350.41 10.22,671.56 -146.57,1341.53 -985.99,1697.69z"/>
    <path class="fil3" d="M17719.17 2373.14c-839.42,-356.16 -996.17,-1025.8 -985.95,-1697.36 343.43,-80.84 672.75,-197.1 985.99,-350.74 313.25,153.64 642.51,269.5 985.95,350.41 10.22,671.56 -146.57,1341.53 -985.99,1697.69z"/>
    <path class="fil4" d="M17714.96 2382.98c-422.41,-179.22 -673.16,-437.54 -817.07,-735.64 -143.69,-297.64 -180.54,-634.49 -175.41,-971.68l0.13 -8.38 8.17 -1.92c172.16,-40.53 340.83,-90.01 505.76,-148.68 163.22,-58.06 322.61,-125.06 477.91,-201.23l9.52 0c156.14,76.58 316.39,143.79 480.52,201.97 164.02,58.15 331.82,107.24 503.15,147.6l8.13 1.92 0.13 8.39c5.13,337.18 -31.74,674.13 -175.43,971.84 -143.93,298.19 -394.68,556.59 -817.09,735.81l-8.42 0zm-797.69 -744.85c141.28,292.64 387.45,546.49 801.9,723.35 414.45,-176.86 660.63,-430.79 801.92,-723.52 140.81,-291.74 177.79,-622.45 173.43,-954.01 -169.27,-40.18 -335.1,-88.84 -497.28,-146.34 -163,-57.79 -322.42,-124.56 -478.03,-200.65 -154.77,75.68 -313.32,142.24 -475.43,199.91 -162.95,57.97 -329.67,107.02 -499.92,147.41 -4.36,331.56 32.61,662.19 173.41,953.85z"/>
    <path class="fil2" d="M17719.17 2292.35c-773.2,-328.06 -917.58,-944.88 -908.17,-1563.45 316.35,-74.47 619.67,-181.56 908.21,-323.08 288.54,141.52 591.82,248.24 908.16,322.77 9.42,618.58 -135.01,1235.7 -908.2,1563.76z"/>
    <path class="fil3" d="M17719.17 2292.35c-773.2,-328.06 -917.58,-944.88 -908.17,-1563.45 316.35,-74.47 619.67,-181.56 908.21,-323.08 288.54,141.52 591.82,248.24 908.16,322.77 9.42,618.58 -135.01,1235.7 -908.2,1563.76z"/>
    <path class="fil4" d="M17714.96 2302.19c-389.3,-165.17 -620.4,-403.25 -753.04,-678.02 -132.42,-274.29 -166.39,-584.7 -161.66,-895.39l0.13 -8.38 8.17 -1.93c158.54,-37.32 313.87,-82.88 465.75,-136.91 150.33,-53.48 297.12,-115.18 440.14,-185.33l9.52 0c142.78,70.03 289.3,131.55 439.36,184.88 152.06,54.05 307.64,99.62 466.53,137.06l8.13 1.91 0.13 8.39c4.73,310.7 -29.25,621.18 -161.68,895.55 -132.65,274.84 -363.76,513 -753.06,678.17l-8.42 0zm-733.66 -687.23c130.01,269.31 356.53,502.93 737.87,665.74 381.34,-162.81 607.87,-396.51 737.89,-665.89 129.54,-268.39 163.63,-572.64 159.68,-877.72 -156.83,-37.24 -310.45,-82.41 -460.66,-135.79 -148.94,-52.94 -294.63,-114.02 -436.87,-183.56 -142.48,69.66 -288.44,130.93 -437.65,184.01 -149.91,53.32 -303.29,98.47 -459.92,135.64 -3.95,305.07 30.13,609.25 159.66,877.57z"/>
    <path class="fil5" d="M18095.1 1006.7l-217.39 -0.15 -59.07 0.48c-34.21,104.7 -64.83,211.1 -97.17,316.73l10.09 0 260.93 0.07c17.47,-1 32.74,-6.15 46.07,-15.5 14.92,-10.46 24.45,-22.29 28.52,-35.62 0.68,-2.36 1.19,-4.72 1.52,-6.99l0.33 0 60.79 -200.98c1.19,-2.45 2.12,-4.88 2.88,-7.42 0.86,-2.69 1.44,-5.41 1.77,-7.99l0.71 -2.11 -0.43 0c0.83,-9.56 -1.9,-17.9 -7.82,-25.17 -7.46,-8.41 -17.97,-13.59 -31.73,-15.35zm-1045.11 378.64l450.2 -1.69c-34.54,112.7 -68.93,225.5 -103.4,338.15l195.74 0.15 36.06 -117.6 16.31 -53.33 31.41 -102.25 301.81 0.18c70.96,0 133.01,-17.99 185.96,-53.99 47.89,-32.24 78.94,-71.63 93.23,-118.13 27.57,-90.07 37.07,-112.97 68.37,-215.19 14.04,-45.74 6.81,-85.31 -21.54,-118.56 -31.66,-36.94 -82.93,-55.42 -153.79,-55.49l-139.71 -0.1 -127.57 -0.18 -214.15 -0.82 -51.86 134.64 -18.91 0.52c-122.56,7.16 -219.5,33.48 -338.58,106.29 -16.03,9.78 -30.98,20.24 -44.91,30.95l355.04 -1.02 -5.44 17.73c-7.31,23.72 -14.69,47.6 -22.07,71.3l-416.64 1.33c-51.86,66.83 -72.32,127.15 -75.56,137.11z"/>
   </g>
  </g>
 </g>
</svg>
