<?xml version="1.0" encoding="UTF-8"?><svg id="Layer_1" xmlns="http://www.w3.org/2000/svg" viewBox="0 0 586.76 320.85"><path d="M69.02,101.69c0-19.07,15.46-34.53,34.53-34.53s34.53,15.46,34.53,34.53-15.46,34.53-34.53,34.53-34.53-15.46-34.53-34.53"/><polygon points="100.02 120.35 106.61 120.35 122 83.02 113.2 83.02 103.82 107.49 103.71 107.49 94.48 83.02 85.1 83.02 100.02 120.35" style="fill:#fff;"/><path d="M221,101.79c0-19.07,15.46-34.53,34.53-34.53s34.53,15.46,34.53,34.53-15.46,34.53-34.53,34.53-34.53-15.46-34.53-34.53"/><polygon points="237.84 120.45 246.06 120.45 246.06 93.88 246.17 93.88 262.46 120.45 273.22 120.45 273.22 83.12 264.99 83.12 264.99 109.06 264.89 109.06 249.02 83.12 237.84 83.12 237.84 120.45" style="fill:#fff;"/><path d="M69.06,177.55c0-19.07,15.46-34.53,34.53-34.53s34.53,15.46,34.53,34.53-15.46,34.53-34.53,34.53-34.53-15.46-34.53-34.53"/><path d="M117.01,161.84c-3.17-2.79-7.22-3.9-11.44-3.9-7.33,0-14.23,4.17-14.23,12.13,0,12.44,17.51,8.75,17.51,15.61,0,2.64-3.01,3.9-5.7,3.9s-5.48-1.32-7.17-3.53l-5.85,6.43c3.53,3.27,7.75,4.69,12.54,4.69,7.7,0,14.4-3.96,14.4-12.28,0-13.07-17.19-8.7-17.19-15.5,0-2.79,3.21-3.85,5.53-3.85,2,0,4.64.79,5.96,2.48l5.64-6.17Z" style="fill:#fff;"/><path d="M145.01,177.55c0-19.07,15.46-34.53,34.53-34.53s34.53,15.46,34.53,34.53-15.46,34.53-34.53,34.53-34.53-15.46-34.53-34.53"/><path d="M195.47,163.43c-3.16-4.06-8.44-5.48-12.6-5.48-11.65,0-20.14,7.64-20.14,19.61s8.49,19.61,20.14,19.61c5.11,0,10.39-2.06,13.49-6.49l-6.85-5.11c-1.69,2.53-4.38,4.01-7.7,4.01-5.96,0-10.55-5.06-10.55-12.02s4.59-12.02,10.81-12.02c3.06,0,5.43,1.11,7.06,3.06l6.33-5.17Z" style="fill:#fff;"/><path d="M220.91,177.55c0-19.07,15.46-34.53,34.53-34.53s34.53,15.46,34.53,34.53-15.46,34.53-34.53,34.53-34.53-15.46-34.53-34.53"/><polygon points="239.23 196.22 247.45 196.22 247.45 180.08 263.43 180.08 263.43 196.22 271.65 196.22 271.65 158.89 263.43 158.89 263.43 172.81 247.45 172.81 247.45 158.89 239.23 158.89 239.23 196.22" style="fill:#fff;"/><path d="M372.76,177.55c0-19.07,15.46-34.53,34.53-34.53s34.53,15.46,34.53,34.53-15.46,34.53-34.53,34.53-34.53-15.46-34.53-34.53"/><rect x="403.18" y="158.89" width="8.22" height="37.33" style="fill:#fff;"/><path d="M448.54,177.55c0-19.07,15.46-34.53,34.53-34.53s34.53,15.46,34.53,34.53-15.46,34.53-34.53,34.53-34.53-15.46-34.53-34.53"/><polygon points="468.61 196.22 476.84 196.22 476.84 178.5 492.02 196.22 503.52 196.22 485.48 176.24 502.09 158.89 491.33 158.89 476.84 174.39 476.84 158.89 468.61 158.89 468.61 196.22" style="fill:#fff;"/><path d="M296.8,177.55c0-19.07,15.46-34.53,34.53-34.53s34.53,15.46,34.53,34.53-15.46,34.53-34.53,34.53-34.53-15.46-34.53-34.53"/><polygon points="334.87 158.89 328.28 158.89 312.88 196.22 321.69 196.22 331.07 171.76 331.18 171.76 340.4 196.22 349.79 196.22 334.87 158.89" style="fill:#fff;"/><path d="M145.01,101.79c0-19.07,15.46-34.53,34.53-34.53s34.53,15.46,34.53,34.53-15.46,34.53-34.53,34.53-34.53-15.46-34.53-34.53"/><polygon points="183.07 83.12 176.48 83.12 161.08 120.45 169.89 120.45 179.28 95.99 179.38 95.99 188.61 120.45 197.99 120.45 183.07 83.12" style="fill:#fff;"/><path d="M243.78,242.64v5.08h1.26c2.36,0,3.63-.66,3.63-2.34s-1.32-2.75-3.96-2.75h-.93ZM243.78,235.13v4.15h.82c1.76,0,2.67-.77,2.67-2.14,0-1.26-.85-2.01-2.53-2.01h-.96ZM240.01,251.29v-19.73h3.6c2.06,0,3.74.22,4.97.96,1.48.88,2.36,2.42,2.36,4.12,0,1.57-.71,2.75-2.06,3.79,2.31,1.1,3.46,2.69,3.46,5.08,0,1.62-.55,2.97-1.7,4.07-1.32,1.29-2.75,1.7-4.75,1.7h-5.88Z" style="fill:#231f20;"/><path d="M272.52,241.48c0,4.01,3.02,6.68,6.51,6.68s6.43-2.94,6.43-6.71-2.72-6.79-6.48-6.79c-3.55,0-6.46,2.75-6.46,6.82M289.26,241.48c0,5.8-4.53,10.28-10.2,10.28s-10.33-4.62-10.33-10.36,4.67-10.33,10.28-10.33,10.25,4.4,10.25,10.41" style="fill:#231f20;"/><path d="M309.34,241.48c0,4.01,3.02,6.68,6.51,6.68s6.43-2.94,6.43-6.71-2.72-6.79-6.48-6.79c-3.55,0-6.46,2.75-6.46,6.82M326.08,241.48c0,5.8-4.53,10.28-10.2,10.28s-10.33-4.62-10.33-10.36,4.67-10.33,10.28-10.33,10.25,4.4,10.25,10.41" style="fill:#231f20;"/><polygon points="343.39 231.56 347.16 231.56 347.16 238.35 352.52 231.56 357.05 231.56 350.13 240.35 357.71 251.29 353.26 251.29 347.16 242.53 347.16 251.29 343.39 251.29 343.39 231.56" style="fill:#231f20;"/><path d="M375.57,245.6c.91,1.7,1.95,2.58,3.27,2.58s2.28-.82,2.28-1.84c0-.72-.47-1.54-1.26-2.2-4.1-3.43-6.51-5.3-6.51-8.11s2.45-4.97,5.41-4.97c2.5,0,4.15,1.35,5.72,3.16l-2.8,2.47c-.93-1.32-1.9-2.03-2.97-2.03-.99,0-1.68.58-1.68,1.37s.58,1.26,1.15,1.76c3.68,3.24,6.62,4.78,6.62,8.38,0,3.3-2.47,5.61-6.05,5.61-2.89,0-4.89-1.4-6.35-4.29l3.16-1.9Z" style="fill:#231f20;"/><polygon points="400.19 231.56 411.1 231.56 411.1 235.24 407.48 235.24 407.48 251.29 403.71 251.29 403.71 235.24 400.19 235.24 400.19 231.56" style="fill:#231f20;"/><path d="M430.26,241.48c0,4.01,3.02,6.68,6.51,6.68s6.43-2.94,6.43-6.71-2.72-6.79-6.48-6.79c-3.55,0-6.46,2.75-6.46,6.82M446.99,241.48c0,5.8-4.53,10.28-10.2,10.28s-10.33-4.62-10.33-10.36,4.67-10.33,10.28-10.33,10.25,4.4,10.25,10.41" style="fill:#231f20;"/><path d="M468.26,239.28h1.73c1.7,0,2.58-.69,2.58-2.03s-.91-2.01-2.69-2.01h-1.62v4.04ZM464.5,231.56h4.59c2.5,0,4.26.3,5.58,1.59.99.96,1.59,2.45,1.59,4.12,0,2.58-1.29,4.34-3.79,5.25l4.67,8.77h-4.09l-4.42-8.35h-.36v8.35h-3.76v-19.73Z" style="fill:#231f20;"/><polygon points="493.96 231.56 504.73 231.56 504.73 235.24 497.72 235.24 497.72 238.76 504.73 238.76 504.73 242.44 497.72 242.44 497.72 247.61 504.73 247.61 504.73 251.29 493.96 251.29 493.96 231.56" style="fill:#231f20;"/></svg>